<svg xmlns="http://www.w3.org/2000/svg" viewBox="0 0 512 512">
  <defs>
    <linearGradient id="bg" x1="0%" y1="0%" x2="100%" y2="100%">
      <stop offset="0%" stop-color="#fff8f3"/>
      <stop offset="100%" stop-color="#fdeee6"/>
    </linearGradient>
    <radialGradient id="glow" cx="50%" cy="42%" r="45%">
      <stop offset="0%" stop-color="#f5d5c8" stop-opacity="0.9"/>
      <stop offset="100%" stop-color="#fff8f3" stop-opacity="0"/>
    </radialGradient>
  </defs>
  <rect width="512" height="512" rx="112" fill="url(#bg)"/>
  <circle cx="256" cy="220" r="150" fill="url(#glow)"/>
  <ellipse cx="256" cy="430" rx="210" ry="70" fill="#f5d5c8" opacity="0.55"/>
  <g transform="translate(256 250)">
    <g fill="#f4c430">
      <ellipse rx="18" ry="52" transform="rotate(0)"/>
      <ellipse rx="18" ry="52" transform="rotate(30)"/>
      <ellipse rx="18" ry="52" transform="rotate(60)"/>
      <ellipse rx="18" ry="52" transform="rotate(90)"/>
      <ellipse rx="18" ry="52" transform="rotate(120)"/>
      <ellipse rx="18" ry="52" transform="rotate(150)"/>
      <ellipse rx="18" ry="52" transform="rotate(180)"/>
      <ellipse rx="18" ry="52" transform="rotate(210)"/>
      <ellipse rx="18" ry="52" transform="rotate(240)"/>
      <ellipse rx="18" ry="52" transform="rotate(270)"/>
      <ellipse rx="18" ry="52" transform="rotate(300)"/>
      <ellipse rx="18" ry="52" transform="rotate(330)"/>
    </g>
    <circle r="42" fill="#8b5a2b"/>
    <circle r="34" fill="#6f4520" opacity="0.35"/>
    <path d="M0 42 C-8 90 -18 120 -22 150" stroke="#6fae63" stroke-width="10" fill="none" stroke-linecap="round"/>
    <path d="M-18 95 C-58 88 -78 72 -92 58" fill="#7fbf72"/>
    <path d="M-10 120 C28 112 48 96 62 82" fill="#7fbf72"/>
  </g>
</svg>
